# xmcd CD database file
#
# Track frame offsets:
#	150
#	14575
#	31695
#	45090
#	58613
#	73940
#	101813
#	115098
#	126095
#	141485
#	150413
#	169938
#	184120
#	201943
#	216143
#	233038
#
# Disc length: 3299 seconds
#
# Revision: 0
# Processed by: cddbd v1.4PL0 Copyright (c) Steve Scherf et al.
# Submitted via: Feurio! 1.65 - http://www.feurio.com
#
DISCID=df0ce110
DTITLE=Paul Kuyt - Gegarandeerd Gedeprimeerd
DYEAR=1900
DGENRE=
TTITLE0=Proloog
TTITLE1=Vlinders van 1 nacht
TTITLE2=Dansen op leven and dood
TTITLE3=Mannenvangen
TTITLE4=Angstgebed
TTITLE5=Rotterdam
TTITLE6=IJstijd
TTITLE7=De economiestudent
TTITLE8=Wat slecht is
TTITLE9=Zomerland
TTITLE10=Marleen
TTITLE11=Depressie
TTITLE12=Zo klein nog ...
TTITLE13=De nevelkoning
TTITLE14=Dezelfde morgen
TTITLE15=Eerlijk gezegd ...
EXTD=
EXTT0=
EXTT1=
EXTT2=
EXTT3=
EXTT4=
EXTT5=
EXTT6=
EXTT7=
EXTT8=
EXTT9=
EXTT10=
EXTT11=
EXTT12=
EXTT13=
EXTT14=
EXTT15=
PLAYORDER=
